<svg width="297" height="55" viewBox="0 0 297 55" fill="none" xmlns="http://www.w3.org/2000/svg">
<path d="M39.8853 0.5V13.4672H53V27.374H26.5142L26.557 0.5H39.8853Z" fill="#F2545B"/>
<path d="M17.7545 54.4028V36.7952H0V27.5288H26.4893L26.4466 54.4028H17.7545Z" fill="#F2545B"/>
<path d="M41.8473 54.5H35.0995V35.8808H53V42.9836H41.8473V54.5Z" fill="#F2545B"/>
<path d="M95.4 41.44C92.4133 41.44 90.2 40.7467 88.76 39.36C87.32 37.9733 86.6 35.88 86.6 33.08V26.56H85.24C83.4533 26.56 82.56 25.68 82.56 23.92C82.56 22.1867 83.4533 21.32 85.24 21.32H86.6V18.84C86.6 17.6667 86.9067 16.7733 87.52 16.16C88.1333 15.5467 89.0133 15.24 90.16 15.24C92.5333 15.24 93.72 16.44 93.72 18.84V21.32H97C98.8133 21.32 99.72 22.1867 99.72 23.92C99.72 25.68 98.8133 26.56 97 26.56H93.72V32.84C93.72 34.76 94.6933 35.72 96.64 35.72C97.0133 35.72 97.3733 35.68 97.72 35.6C98.0667 35.52 98.3867 35.48 98.68 35.48C99.1067 35.4533 99.4533 35.5867 99.72 35.88C99.9867 36.1467 100.12 36.7733 100.12 37.76C100.12 38.56 100 39.24 99.76 39.8C99.52 40.3333 99.0933 40.72 98.48 40.96C98.1067 41.0933 97.6 41.2 96.96 41.28C96.32 41.3867 95.8 41.44 95.4 41.44ZM106.295 18.12C105.042 18.12 104.069 17.8267 103.375 17.24C102.709 16.6533 102.375 15.8 102.375 14.68C102.375 13.5867 102.709 12.7467 103.375 12.16C104.069 11.5733 105.042 11.28 106.295 11.28C108.935 11.28 110.255 12.4133 110.255 14.68C110.255 15.8 109.909 16.6533 109.215 17.24C108.549 17.8267 107.575 18.12 106.295 18.12ZM106.295 41.36C105.149 41.36 104.269 41.0267 103.655 40.36C103.069 39.6933 102.775 38.7333 102.775 37.48V24.84C102.775 23.5867 103.069 22.6267 103.655 21.96C104.269 21.2933 105.149 20.96 106.295 20.96C107.442 20.96 108.322 21.2933 108.935 21.96C109.575 22.6267 109.895 23.5867 109.895 24.84V37.48C109.895 38.7333 109.589 39.6933 108.975 40.36C108.362 41.0267 107.469 41.36 106.295 41.36ZM117.625 41.36C116.479 41.36 115.599 41.0533 114.985 40.44C114.399 39.8267 114.105 38.9333 114.105 37.76V24.52C114.105 22.1467 115.265 20.96 117.585 20.96C119.692 20.96 120.839 21.9733 121.025 24C121.612 23.04 122.412 22.28 123.425 21.72C124.465 21.16 125.665 20.88 127.025 20.88C128.359 20.88 129.505 21.1733 130.465 21.76C131.452 22.3467 132.199 23.2533 132.705 24.48C133.372 23.3333 134.279 22.4533 135.425 21.84C136.572 21.2 137.839 20.88 139.225 20.88C141.519 20.88 143.212 21.5733 144.305 22.96C145.425 24.32 145.985 26.4533 145.985 29.36V37.76C145.985 38.9333 145.665 39.8267 145.025 40.44C144.412 41.0533 143.532 41.36 142.385 41.36C141.265 41.36 140.399 41.0533 139.785 40.44C139.172 39.8267 138.865 38.9333 138.865 37.76V29.56C138.865 28.4133 138.692 27.5867 138.345 27.08C137.999 26.5733 137.425 26.32 136.625 26.32C135.639 26.32 134.879 26.6667 134.345 27.36C133.839 28.0533 133.585 29.04 133.585 30.32V37.76C133.585 38.9333 133.279 39.8267 132.665 40.44C132.052 41.0533 131.172 41.36 130.025 41.36C128.879 41.36 127.999 41.0533 127.385 40.44C126.772 39.8267 126.465 38.9333 126.465 37.76V29.56C126.465 28.4133 126.292 27.5867 125.945 27.08C125.599 26.5733 125.025 26.32 124.225 26.32C123.265 26.32 122.519 26.6667 121.985 27.36C121.479 28.0533 121.225 29.04 121.225 30.32V37.76C121.225 40.16 120.025 41.36 117.625 41.36ZM171.604 41.44C169.391 41.44 167.458 41.0267 165.804 40.2C164.178 39.3733 162.911 38.1867 162.004 36.64C161.098 35.0933 160.644 33.2533 160.644 31.12C160.644 28.9867 161.098 27.16 162.004 25.64C162.911 24.0933 164.178 22.92 165.804 22.12C167.458 21.2933 169.391 20.88 171.604 20.88C172.378 20.88 173.191 20.96 174.044 21.12C174.898 21.2533 175.778 21.52 176.684 21.92C177.298 22.16 177.738 22.5333 178.004 23.04C178.271 23.52 178.378 24.04 178.324 24.6C178.298 25.16 178.138 25.6667 177.844 26.12C177.578 26.5733 177.191 26.88 176.684 27.04C176.204 27.2 175.658 27.1333 175.044 26.84C174.164 26.44 173.271 26.24 172.364 26.24C170.951 26.24 169.858 26.6667 169.084 27.52C168.311 28.3733 167.924 29.5733 167.924 31.12C167.924 32.6933 168.311 33.92 169.084 34.8C169.858 35.6533 170.951 36.08 172.364 36.08C172.791 36.08 173.231 36.04 173.684 35.96C174.138 35.8533 174.591 35.6933 175.044 35.48C175.684 35.1867 176.231 35.1333 176.684 35.32C177.164 35.48 177.538 35.7867 177.804 36.24C178.098 36.6667 178.258 37.16 178.284 37.72C178.338 38.28 178.231 38.8133 177.964 39.32C177.698 39.8 177.244 40.16 176.604 40.4C175.698 40.8 174.831 41.0667 174.004 41.2C173.178 41.36 172.378 41.44 171.604 41.44ZM187.74 41.44C186.22 41.44 184.874 41.16 183.7 40.6C182.554 40.04 181.647 39.28 180.98 38.32C180.34 37.3333 180.02 36.2133 180.02 34.96C180.02 33.5467 180.394 32.4267 181.14 31.6C181.887 30.7467 183.087 30.1467 184.74 29.8C186.394 29.4267 188.594 29.24 191.34 29.24H192.86V28.68C192.86 27.72 192.607 27.04 192.1 26.64C191.62 26.24 190.78 26.04 189.58 26.04C188.914 26.04 188.18 26.12 187.38 26.28C186.607 26.4133 185.727 26.6667 184.74 27.04C183.86 27.36 183.127 27.3467 182.54 27C181.954 26.6533 181.567 26.16 181.38 25.52C181.22 24.8533 181.287 24.2 181.58 23.56C181.9 22.8933 182.5 22.4 183.38 22.08C184.66 21.6267 185.834 21.32 186.9 21.16C187.994 20.9733 188.994 20.88 189.9 20.88C193.18 20.88 195.607 21.5867 197.18 23C198.78 24.4133 199.58 26.64 199.58 29.68V37.76C199.58 40.16 198.487 41.36 196.3 41.36C194.22 41.36 193.114 40.2933 192.98 38.16C192.607 39.1733 191.967 39.9733 191.06 40.56C190.154 41.1467 189.047 41.44 187.74 41.44ZM189.34 36.8C190.327 36.8 191.154 36.48 191.82 35.84C192.514 35.2 192.86 34.36 192.86 33.32V32.6H191.34C189.767 32.6 188.607 32.7733 187.86 33.12C187.14 33.44 186.78 33.96 186.78 34.68C186.78 35.2933 186.994 35.8 187.42 36.2C187.874 36.6 188.514 36.8 189.34 36.8ZM207.155 41.36C206.008 41.36 205.128 41.0533 204.515 40.44C203.928 39.8267 203.635 38.9333 203.635 37.76V24.52C203.635 22.1467 204.795 20.96 207.115 20.96C209.221 20.96 210.368 21.9867 210.555 24.04C211.221 23.0267 212.101 22.2533 213.195 21.72C214.315 21.16 215.555 20.88 216.915 20.88C219.261 20.88 220.995 21.5733 222.115 22.96C223.261 24.3467 223.835 26.48 223.835 29.36V37.76C223.835 38.9333 223.528 39.8267 222.915 40.44C222.301 41.0533 221.421 41.36 220.275 41.36C219.128 41.36 218.248 41.0533 217.635 40.44C217.021 39.8267 216.715 38.9333 216.715 37.76V29.64C216.715 28.44 216.501 27.5867 216.075 27.08C215.675 26.5733 215.075 26.32 214.275 26.32C213.208 26.32 212.355 26.6667 211.715 27.36C211.075 28.0267 210.755 28.9333 210.755 30.08V37.76C210.755 40.16 209.555 41.36 207.155 41.36ZM234.733 41.44C233.213 41.44 231.866 41.16 230.693 40.6C229.546 40.04 228.639 39.28 227.973 38.32C227.333 37.3333 227.013 36.2133 227.013 34.96C227.013 33.5467 227.386 32.4267 228.133 31.6C228.879 30.7467 230.079 30.1467 231.733 29.8C233.386 29.4267 235.586 29.24 238.333 29.24H239.853V28.68C239.853 27.72 239.599 27.04 239.093 26.64C238.613 26.24 237.773 26.04 236.573 26.04C235.906 26.04 235.173 26.12 234.373 26.28C233.599 26.4133 232.719 26.6667 231.733 27.04C230.853 27.36 230.119 27.3467 229.533 27C228.946 26.6533 228.559 26.16 228.373 25.52C228.213 24.8533 228.279 24.2 228.573 23.56C228.893 22.8933 229.493 22.4 230.373 22.08C231.653 21.6267 232.826 21.32 233.893 21.16C234.986 20.9733 235.986 20.88 236.893 20.88C240.173 20.88 242.599 21.5867 244.173 23C245.773 24.4133 246.573 26.64 246.573 29.68V37.76C246.573 40.16 245.479 41.36 243.293 41.36C241.213 41.36 240.106 40.2933 239.973 38.16C239.599 39.1733 238.959 39.9733 238.053 40.56C237.146 41.1467 236.039 41.44 234.733 41.44ZM236.333 36.8C237.319 36.8 238.146 36.48 238.813 35.84C239.506 35.2 239.853 34.36 239.853 33.32V32.6H238.333C236.759 32.6 235.599 32.7733 234.853 33.12C234.133 33.44 233.773 33.96 233.773 34.68C233.773 35.2933 233.986 35.8 234.413 36.2C234.866 36.6 235.506 36.8 236.333 36.8ZM258.307 41.44C256.627 41.44 255.134 41.0267 253.827 40.2C252.547 39.3733 251.534 38.1867 250.787 36.64C250.067 35.0933 249.707 33.2667 249.707 31.16C249.707 29.0267 250.067 27.2 250.787 25.68C251.534 24.1333 252.547 22.9467 253.827 22.12C255.134 21.2933 256.627 20.88 258.307 20.88C259.56 20.88 260.707 21.1467 261.747 21.68C262.814 22.1867 263.627 22.8533 264.187 23.68V16.04C264.187 13.64 265.374 12.44 267.747 12.44C268.894 12.44 269.774 12.7467 270.387 13.36C271 13.9733 271.307 14.8667 271.307 16.04V37.76C271.307 40.16 270.134 41.36 267.787 41.36C265.68 41.36 264.52 40.36 264.307 38.36C263.774 39.2933 262.96 40.04 261.867 40.6C260.8 41.16 259.614 41.44 258.307 41.44ZM260.587 36.2C261.654 36.2 262.534 35.8 263.227 35C263.92 34.2 264.267 32.92 264.267 31.16C264.267 29.3733 263.92 28.0933 263.227 27.32C262.534 26.52 261.654 26.12 260.587 26.12C259.494 26.12 258.6 26.52 257.907 27.32C257.214 28.0933 256.867 29.3733 256.867 31.16C256.867 32.92 257.214 34.2 257.907 35C258.6 35.8 259.494 36.2 260.587 36.2ZM282.272 41.44C280.752 41.44 279.405 41.16 278.232 40.6C277.085 40.04 276.178 39.28 275.512 38.32C274.872 37.3333 274.552 36.2133 274.552 34.96C274.552 33.5467 274.925 32.4267 275.672 31.6C276.418 30.7467 277.618 30.1467 279.272 29.8C280.925 29.4267 283.125 29.24 285.872 29.24H287.392V28.68C287.392 27.72 287.138 27.04 286.632 26.64C286.152 26.24 285.312 26.04 284.112 26.04C283.445 26.04 282.712 26.12 281.912 26.28C281.138 26.4133 280.258 26.6667 279.272 27.04C278.392 27.36 277.658 27.3467 277.072 27C276.485 26.6533 276.098 26.16 275.912 25.52C275.752 24.8533 275.818 24.2 276.112 23.56C276.432 22.8933 277.032 22.4 277.912 22.08C279.192 21.6267 280.365 21.32 281.432 21.16C282.525 20.9733 283.525 20.88 284.432 20.88C287.712 20.88 290.138 21.5867 291.712 23C293.312 24.4133 294.112 26.64 294.112 29.68V37.76C294.112 40.16 293.018 41.36 290.832 41.36C288.752 41.36 287.645 40.2933 287.512 38.16C287.138 39.1733 286.498 39.9733 285.592 40.56C284.685 41.1467 283.578 41.44 282.272 41.44ZM283.872 36.8C284.858 36.8 285.685 36.48 286.352 35.84C287.045 35.2 287.392 34.36 287.392 33.32V32.6H285.872C284.298 32.6 283.138 32.7733 282.392 33.12C281.672 33.44 281.312 33.96 281.312 34.68C281.312 35.2933 281.525 35.8 281.952 36.2C282.405 36.6 283.045 36.8 283.872 36.8Z" fill="#444444"/>
</svg>
