<?xml version="1.0" standalone="no"?>
<!DOCTYPE svg PUBLIC "-//W3C//DTD SVG 20010904//EN"
 "http://www.w3.org/TR/2001/REC-SVG-20010904/DTD/svg10.dtd">
<svg version="1.0" xmlns="http://www.w3.org/2000/svg"
 width="260.000000pt" height="260.000000pt" viewBox="0 0 260.000000 260.000000"
 preserveAspectRatio="xMidYMid meet">
<metadata>
Created by potrace 1.14, written by Peter Selinger 2001-2017
</metadata>
<g transform="translate(0.000000,260.000000) scale(0.100000,-0.100000)"
fill="#000000" stroke="none">
<path d="M1354 2251 c-2 -2 -4 -137 -4 -298 0 -339 -2 -330 98 -430 89 -91
322 -256 348 -246 5 2 10 15 10 29 0 20 -13 36 -55 68 -110 82 -222 182 -213
190 3 3 1 6 -5 6 -6 0 -23 19 -39 41 l-28 42 -1 237 -1 238 26 4 c14 2 90 3
168 3 131 -1 142 0 142 17 0 16 10 18 83 19 190 1 182 0 185 38 2 19 -1 37 -7
41 -6 3 -57 5 -114 3 -56 -1 -106 -3 -112 -3 -242 4 -477 4 -481 1z"/>
<path d="M1657 2054 c-13 -14 -7 -43 11 -47 9 -3 37 -4 62 -3 25 1 52 -3 60
-10 10 -7 53 -11 123 -10 62 0 112 -3 115 -9 3 -5 5 -74 4 -152 -1 -152 -8
-178 -57 -227 -14 -14 -25 -23 -25 -21 0 2 -13 -8 -29 -23 -41 -37 -60 -54
-91 -77 -16 -11 -26 -28 -24 -38 4 -27 10 -30 26 -14 7 8 25 20 38 27 46 23
166 119 191 152 48 64 48 65 49 265 l0 192 -223 1 c-123 0 -226 -3 -230 -6z"/>
<path d="M330 1614 c0 -16 122 -13 139 4 12 11 2 13 -63 10 -47 -1 -76 -7 -76
-14z"/>
<path d="M398 1575 c-3 -3 -23 -7 -44 -8 l-39 -2 0 -150 0 -150 78 -3 c81 -3
111 7 100 34 -4 10 -22 14 -62 14 -32 0 -60 2 -63 5 -3 3 -2 22 1 43 6 36 7
37 49 36 33 0 43 3 48 18 8 27 -1 32 -49 33 -41 0 -42 1 -45 36 l-3 36 51 -1
c55 -2 67 2 64 22 -1 6 -2 16 -3 21 0 6 -13 9 -28 7 -16 -1 -33 1 -39 6 -6 4
-13 5 -16 3z"/>
<path d="M93 1558 c-38 -19 -54 -68 -49 -155 5 -94 9 -104 44 -125 48 -29 119
-27 151 4 22 20 22 22 7 34 -13 9 -25 10 -47 2 -16 -6 -44 -7 -62 -4 l-32 6
-3 80 c-4 112 22 140 101 107 31 -13 35 -13 45 3 26 42 -94 79 -155 48z"/>
<path d="M588 1554 c-43 -23 -56 -59 -52 -147 3 -82 17 -117 55 -137 31 -17
96 -14 140 5 l39 18 -1 69 -2 68 -53 0 c-29 0 -55 -4 -58 -9 -9 -14 4 -40 17
-35 22 7 39 -13 35 -42 -3 -27 -6 -29 -47 -28 -62 1 -74 21 -67 107 3 38 10
74 16 82 11 13 72 13 103 0 12 -5 24 -3 32 6 42 42 -92 79 -157 43z"/>
<path d="M830 1413 l0 -154 88 3 c81 3 87 5 90 25 3 20 -1 22 -59 25 -55 3
-63 5 -64 24 -1 12 2 31 7 43 6 19 13 21 41 17 25 -4 35 -1 45 14 14 23 4 32
-42 35 -17 2 -36 3 -43 4 -11 1 -11 39 0 58 3 5 27 9 53 9 32 -1 48 4 54 15
15 28 -4 36 -87 36 l-83 0 0 -154z"/>
<path d="M1065 1547 c-8 -11 -11 -25 -8 -31 4 -6 7 -65 7 -131 l1 -120 25 0
c23 0 25 4 28 55 l3 55 41 -2 c57 -2 98 38 98 95 0 22 -3 48 -6 57 -9 24 -50
38 -117 41 -48 2 -59 -1 -72 -19z m131 -62 c8 -33 -11 -55 -47 -55 -26 0 -29
3 -29 33 0 41 5 47 41 47 22 0 30 -6 35 -25z"/>
<path d="M198 1205 c-1 -2 -28 -4 -58 -6 -63 -3 -71 -5 -64 -22 3 -8 28 -12
77 -11 57 0 73 3 75 16 3 14 -21 32 -30 23z"/>
<path d="M49 1041 c-1 -127 2 -245 5 -249 3 -3 98 -4 167 -3 32 1 36 4 37 30
1 28 0 28 -61 30 -68 2 -88 13 -83 45 3 11 5 27 5 35 1 9 12 12 41 9 22 -2 40
0 40 4 0 4 7 5 15 2 12 -5 14 -1 11 17 -3 13 -5 27 -5 30 -1 3 -22 6 -47 6
-52 1 -51 0 -57 34 -7 38 2 45 68 44 60 0 60 0 60 30 l0 30 -97 1 -98 0 -1
-95z"/>
<path d="M309 1125 c-7 -53 -3 -327 4 -332 12 -7 111 -6 152 2 17 3 42 19 58
35 26 29 27 35 27 136 0 103 -1 106 -29 135 -31 31 -33 31 -141 33 -42 1 -70
-2 -71 -9z m165 -65 c6 -6 12 -47 13 -90 2 -94 -12 -120 -67 -121 -52 -2 -62
0 -55 11 4 6 7 58 7 116 l-1 106 46 -6 c26 -3 51 -10 57 -16z"/>
<path d="M665 1126 c-49 -21 -67 -59 -69 -140 -3 -95 9 -145 41 -172 30 -26
55 -32 117 -28 98 5 131 54 128 184 -3 98 -4 100 -15 100 -6 0 -7 3 -4 6 8 9
-30 43 -61 55 -33 13 -102 10 -137 -5z m136 -68 c5 -7 9 -52 9 -99 0 -98 -8
-111 -67 -115 -26 -1 -42 4 -58 20 -19 19 -21 31 -20 96 3 102 2 99 28 110 29
13 98 5 108 -12z"/>
<path d="M929 1126 c-1 -6 -2 -64 -3 -130 -1 -134 8 -167 58 -193 35 -19 109
-25 144 -12 34 13 62 42 70 75 5 16 8 83 8 148 l-1 119 -27 4 c-15 2 -30 -2
-34 -8 -3 -6 -7 -65 -8 -131 -1 -111 -3 -121 -24 -138 -12 -10 -30 -17 -40
-15 -9 2 -26 4 -37 4 -32 2 -41 38 -40 164 0 64 -2 118 -5 119 -23 6 -60 3
-61 -6z"/>
<path d="M1342 1123 c-9 -16 -42 -117 -92 -275 l-18 -58 34 0 c39 0 36 -6 85
150 32 104 32 105 45 74 17 -40 22 -88 9 -89 -20 -1 -35 -17 -35 -37 0 -17 5
-20 31 -16 31 5 46 -9 54 -54 6 -27 10 -30 40 -30 46 0 47 -8 -39 252 l-31 95
-37 3 c-27 2 -39 -1 -46 -15z"/>
<path d="M1576 1131 c-2 -3 -3 -81 -3 -173 l0 -168 33 0 c30 0 34 3 35 28 0
15 2 63 3 107 1 44 -1 92 -5 106 -11 42 0 47 82 40 21 -1 30 -46 14 -68 -7 -9
-27 -17 -46 -19 -19 -1 -35 -3 -37 -3 -6 -2 91 -177 104 -187 14 -11 64 -7 64
5 0 3 -14 33 -32 67 l-32 61 26 26 c21 21 26 36 27 80 0 45 -4 58 -24 77 -20
19 -36 22 -115 24 -50 2 -92 0 -94 -3z"/>
<path d="M1867 1122 c-3 -9 -5 -88 -6 -174 l-1 -158 48 -1 c117 -3 151 7 184
52 15 20 19 43 20 115 1 148 -19 171 -154 178 -76 5 -87 3 -91 -12z m161 -66
c17 -17 23 -138 9 -173 -11 -24 -50 -41 -84 -35 -24 4 -25 8 -25 117 1 123 -3
113 43 110 23 -2 49 -10 57 -19z"/>
<path d="M537 679 c-24 -4 -51 -18 -69 -36 -29 -29 -30 -35 -32 -119 -3 -109
7 -144 48 -172 54 -37 166 -29 207 14 18 19 24 39 28 103 7 97 -3 151 -32 179
-28 26 -97 40 -150 31z m78 -63 c38 -16 38 -15 37 -134 -1 -35 -6 -70 -12 -77
-6 -7 -32 -12 -61 -12 -67 0 -78 17 -75 119 2 80 13 104 49 111 12 2 23 5 25
6 1 0 18 -6 37 -13z"/>
<path d="M50 504 l0 -175 28 3 27 3 3 100 c1 55 7 104 12 109 6 6 21 -16 41
-60 37 -82 46 -94 64 -88 12 5 77 125 79 147 1 4 6 8 11 10 6 1 11 -34 11 -88
3 -147 1 -137 32 -133 l27 3 0 170 0 170 -40 0 c-40 0 -40 0 -79 -77 -22 -43
-43 -78 -47 -78 -7 0 -70 125 -68 136 2 13 -27 24 -63 24 l-38 0 0 -176z"/>
<path d="M770 506 l0 -173 28 1 27 1 5 120 5 119 20 -29 c11 -17 20 -32 20
-35 0 -8 77 -154 88 -168 6 -8 26 -12 51 -10 l41 4 1 172 1 173 -31 -3 -31 -3
0 -112 c-1 -109 -8 -145 -21 -107 -4 10 -14 27 -22 37 -8 9 -11 17 -6 17 5 0
5 4 -1 8 -5 4 -27 42 -48 85 l-39 77 -44 0 -44 0 0 -174z"/>
<path d="M1089 678 c-1 -2 -2 -15 -3 -30 -3 -27 -2 -28 51 -28 l53 0 0 -143 0
-144 29 -1 c16 0 31 5 33 11 3 7 4 72 3 145 l0 132 53 0 c52 0 53 1 50 28 l-3
27 -132 3 c-73 1 -133 1 -134 0z"/>
<path d="M1389 668 c-1 -17 -1 -297 0 -320 1 -14 9 -17 34 -15 l32 3 0 57 c0
31 0 57 0 58 0 0 20 3 45 5 87 10 116 44 112 129 -1 30 -8 46 -30 66 -26 23
-38 26 -111 28 -60 2 -81 -1 -82 -11z m146 -60 c11 -29 12 -64 3 -75 -6 -7
-27 -13 -47 -13 l-36 0 0 50 0 50 38 0 c21 0 40 -5 42 -12z"/>
<path d="M1647 673 c-2 -5 -4 -82 -3 -173 l1 -165 102 -1 c99 -1 101 -1 106
23 6 30 -7 37 -68 39 -27 1 -56 2 -62 3 -8 0 -13 16 -13 41 0 43 -3 41 70 44
30 1 35 5 38 29 3 22 -1 27 -20 28 -89 4 -83 1 -86 42 l-3 37 65 0 66 0 0 30
0 30 -94 0 c-52 0 -97 -3 -99 -7z"/>
<path d="M1870 650 c0 -29 1 -30 50 -30 l49 0 3 -142 3 -143 30 0 30 0 3 143
3 142 49 0 c48 0 49 1 48 30 l-1 30 -134 0 -133 0 0 -30z"/>
<path d="M2174 508 l1 -173 35 0 35 0 0 170 0 170 -36 3 -36 3 1 -173z"/>
<path d="M2278 675 c-3 -3 -3 -17 0 -30 4 -22 9 -25 51 -25 l48 0 0 -112 c1
-184 1 -178 22 -178 50 0 51 3 51 151 l0 139 50 0 c49 0 50 1 50 30 l0 30
-133 0 c-74 0 -136 -2 -139 -5z"/>
</g>
</svg>
