<svg width="44" height="40" viewBox="0 0 44 40" fill="none" xmlns="http://www.w3.org/2000/svg">
<path d="M43.4375 0.75H0.5625C0.321875 0.75 0.125 0.946875 0.125 1.1875V4.6875C0.125 4.92813 0.321875 5.125 0.5625 5.125H43.4375C43.6781 5.125 43.875 4.92813 43.875 4.6875V1.1875C43.875 0.946875 43.6781 0.75 43.4375 0.75ZM43.4375 34.875H0.5625C0.321875 34.875 0.125 35.0719 0.125 35.3125V38.8125C0.125 39.0531 0.321875 39.25 0.5625 39.25H43.4375C43.6781 39.25 43.875 39.0531 43.875 38.8125V35.3125C43.875 35.0719 43.6781 34.875 43.4375 34.875ZM43.4375 17.8125H0.5625C0.321875 17.8125 0.125 18.0094 0.125 18.25V21.75C0.125 21.9906 0.321875 22.1875 0.5625 22.1875H43.4375C43.6781 22.1875 43.875 21.9906 43.875 21.75V18.25C43.875 18.0094 43.6781 17.8125 43.4375 17.8125Z" fill="black"/>
</svg>
