<svg width="58" height="57" viewBox="0 0 58 57" fill="none" xmlns="http://www.w3.org/2000/svg">
<path fill-rule="evenodd" clip-rule="evenodd" d="M29 0C30.6569 0 32 1.34315 32 3V6.39445L36.3359 3.50385C37.7145 2.58479 39.5771 2.95731 40.4962 4.3359C41.4152 5.71449 41.0427 7.57709 39.6641 8.49615L32 13.6056V15.3001C37.3675 16.3896 41.6943 20.3452 43.3133 25.5H43.8944L49.0038 17.8359C49.9229 16.4573 51.7855 16.0848 53.1641 17.0038C54.5427 17.9229 54.9152 19.7855 53.9962 21.1641L51.1056 25.5H54.5C56.1569 25.5 57.5 26.8431 57.5 28.5C57.5 30.1569 56.1569 31.5 54.5 31.5H51.1056L53.9962 35.8359C54.9152 37.2145 54.5427 39.0771 53.1641 39.9962C51.7855 40.9152 49.9229 40.5427 49.0038 39.1641L43.9218 31.541C43.303 37.6044 39.0729 42.5989 33.417 44.3391L39.6641 48.5038C41.0427 49.4229 41.4152 51.2855 40.4962 52.6641C39.5771 54.0427 37.7145 54.4152 36.3359 53.4962L32 50.6056V54C32 55.6569 30.6569 57 29 57C27.3431 57 26 55.6569 26 54V50.6056L21.6641 53.4962C20.2855 54.4152 18.4229 54.0427 17.5038 52.6641C16.5848 51.2855 16.9573 49.4229 18.3359 48.5038L24.583 44.3391C18.9271 42.5989 14.697 37.6044 14.0782 31.541L8.99615 39.1641C8.07709 40.5427 6.21449 40.9152 4.8359 39.9962C3.45731 39.0771 3.08479 37.2145 4.00385 35.8359L6.89445 31.5H3.5C1.84315 31.5 0.5 30.1569 0.5 28.5C0.5 26.8431 1.84315 25.5 3.5 25.5H6.89445L4.00385 21.1641C3.08479 19.7855 3.45731 17.9229 4.8359 17.0038C6.21449 16.0848 8.07709 16.4573 8.99615 17.8359L14.1056 25.5H14.6867C16.3057 20.3452 20.6325 16.3896 26 15.3001V13.6056L18.3359 8.49615C16.9573 7.57709 16.5848 5.71449 17.5038 4.3359C18.4229 2.95731 20.2855 2.58479 21.6641 3.50385L26 6.39445V3C26 1.34315 27.3431 0 29 0ZM20.062 31.0618C20.9244 30.5348 21.5 29.5846 21.5 28.5C21.5 27.7206 21.2028 27.0107 20.7155 26.4773C22.0864 23.2574 25.2796 21 29 21C32.7204 21 35.9136 23.2574 37.2845 26.4773C36.7972 27.0107 36.5 27.7206 36.5 28.5C36.5 29.5846 37.0756 30.5348 37.938 31.0618C37.5308 34.5271 35.1548 37.3902 31.9589 38.5023C31.7218 37.0823 30.4873 36 29 36C27.5127 36 26.2782 37.0823 26.0411 38.5023C22.8452 37.3902 20.4693 34.5271 20.062 31.0618Z" fill="white"/>
</svg>
