<svg width="117" height="63" viewBox="0 0 117 63" fill="none" xmlns="http://www.w3.org/2000/svg">
<path d="M112.585 51.9764H111.26C110.819 49.5512 108.611 47.5669 105.962 47.5669H99.3396C98.6774 47.5669 98.2358 48.0079 98.2358 48.6693C98.2358 49.3307 98.6774 49.7717 99.3396 49.7717H105.962C107.508 49.7717 108.611 50.6535 109.053 51.9764H97.1321C94.7038 51.9764 92.717 53.9606 92.717 56.3858V58.5905C92.717 61.0157 94.7038 63 97.1321 63H112.585C115.013 63 117 61.0157 117 58.5905V56.3858C117 53.9606 115.013 51.9764 112.585 51.9764ZM114.792 58.5905C114.792 59.9134 113.909 60.7953 112.585 60.7953H97.1321C95.8075 60.7953 94.9245 59.9134 94.9245 58.5905V56.3858C94.9245 55.063 95.8075 54.1811 97.1321 54.1811H112.585C113.909 54.1811 114.792 55.063 114.792 56.3858V58.5905Z" fill="white"/>
<path d="M74.3943 15.378C76.3811 15.378 78.3679 14.4961 79.9132 13.1732C81.4585 11.8504 82.1208 9.86614 82.1208 7.66142C82.1208 5.67717 81.2377 3.69291 79.9132 2.14961C77.0434 -0.716535 71.966 -0.716535 69.0962 2.14961C67.5509 3.69291 66.8887 5.45669 66.8887 7.66142C66.8887 9.86614 67.7717 11.6299 69.0962 13.1732C70.4208 14.7165 72.4075 15.378 74.3943 15.378ZM70.6415 3.69291C71.7453 2.59055 73.0698 2.14961 74.6151 2.14961C76.1604 2.14961 77.4849 2.81102 78.5887 3.69291C79.6925 4.5748 80.134 6.11811 80.134 7.66142C80.134 9.20472 79.4717 10.5276 78.5887 11.6299C76.6019 13.6142 72.8491 13.6142 70.8623 11.6299C69.7585 10.5276 69.317 9.20472 69.317 7.66142C69.317 6.11811 69.5377 4.79528 70.6415 3.69291Z" fill="white"/>
<path d="M92.4962 39.6299L67.5509 14.7165C64.6811 11.8504 59.6038 11.8504 56.734 14.7165L39.2943 31.9134L36.2038 35C34.217 36.9843 33.9962 39.8504 35.5415 41.8347L25.3868 51.9764H5.51887C2.4283 51.9764 0 54.4016 0 57.4882C0 60.5748 2.4283 63 5.51887 63H27.5943C29.1396 63 30.4641 62.3386 31.5679 61.4567L47.0207 46.0236H52.5396L46.3585 52.1968C45.2547 53.2992 44.8132 54.6221 44.8132 56.1654C44.8132 57.7087 45.4755 59.0315 46.3585 60.1339C47.4623 61.2362 48.7868 61.6772 50.3321 61.6772C51.8773 61.6772 53.2019 61.0157 54.3057 60.1339L69.9792 44.4803C71.083 43.3779 71.5245 42.0551 71.5245 40.5118C71.5245 37.4252 69.0962 35 66.0057 35H58.0585L65.1226 27.9449L84.549 47.3465C85.6528 48.4488 86.9773 48.8898 88.5226 48.8898C89.8472 48.8898 91.3924 48.4488 92.4962 47.3465C93.6 46.2441 94.0415 44.9213 94.0415 43.3779C94.0415 41.8346 93.3792 40.7323 92.4962 39.6299ZM86.0943 45.8032L62.4736 22.2126C62.4736 22.2126 62.2528 22.2126 62.2528 21.9921C61.8113 21.7717 61.3698 21.7717 60.9283 22.2126C60.4868 22.6535 60.4868 23.315 60.9283 23.7559L63.3566 26.1811L49.2283 40.2913L45.917 36.9843L45.6962 36.5433L41.9434 32.7953L58.2792 16.4803C60.266 14.4961 64.0189 14.4961 66.0057 16.4803L91.1717 41.6142C91.834 42.2756 92.0547 43.1575 92.0547 44.0394C92.0547 44.9213 91.6132 45.8032 91.1717 46.4646C89.6264 47.126 87.4189 47.126 86.0943 45.8032ZM2.20755 57.4882C2.20755 55.7244 3.75283 54.1811 5.51887 54.1811H25.8283C26.0491 54.1811 26.4906 53.9606 26.7113 53.9606L37.9698 42.7165C38.4113 42.2756 38.4113 41.6142 37.9698 41.1732C36.6453 39.8504 36.6453 37.8661 37.9698 36.5433L40.3981 34.1181L48.3453 42.0551L30.4641 59.9134C29.8019 60.5748 28.9189 60.7953 28.0358 60.7953H5.96038C3.75283 60.7953 2.20755 59.4724 2.20755 57.4882ZM66.0057 37.2047C67.7717 37.2047 69.317 38.748 69.317 40.5118C69.317 41.3937 68.8755 42.2756 68.434 42.937L52.7604 58.5905C51.4359 59.9134 49.2283 59.9134 48.1245 58.5905C47.4623 57.9291 47.2415 57.0472 47.2415 56.1654C47.2415 55.2835 47.683 54.4016 48.1245 53.7402L56.2924 45.5827C56.5132 45.3622 56.734 44.7008 56.5132 44.4803C56.2924 44.0394 55.8509 43.8189 55.4094 43.8189H49.4491L56.0717 37.2047L66.0057 37.2047Z" fill="white"/>
</svg>
