<svg width="34" height="34" viewBox="0 0 34 34" fill="none" xmlns="http://www.w3.org/2000/svg">
<path fill-rule="evenodd" clip-rule="evenodd" d="M20.972 22.9608C16.0027 26.9407 8.72881 26.6275 4.12233 22.021C-0.820238 17.0784 -0.820238 9.06495 4.12233 4.12237C9.06491 -0.8202 17.0784 -0.820199 22.021 4.12237C26.6274 8.72884 26.9407 16.0028 22.9607 20.972L32.6275 30.6388C33.1767 31.188 33.1767 32.0784 32.6275 32.6276C32.0784 33.1767 31.188 33.1767 30.6388 32.6276L20.972 22.9608ZM6.11107 20.0323C2.26685 16.1881 2.26685 9.95533 6.11107 6.11111C9.9553 2.26689 16.188 2.26689 20.0322 6.11111C23.8736 9.95251 23.8765 16.1789 20.0407 20.0238C20.0379 20.0266 20.035 20.0294 20.0322 20.0322C20.0294 20.035 20.0266 20.0379 20.0238 20.0407C16.1789 23.8765 9.95248 23.8737 6.11107 20.0323Z" fill="#001514"/>
</svg>
