<svg width="60" height="60" viewBox="0 0 60 60" fill="none" xmlns="http://www.w3.org/2000/svg">
<path d="M42 30C42 36.6274 36.6274 42 30 42C23.3726 42 18 36.6274 18 30C18 23.3726 23.3726 18 30 18C36.6274 18 42 23.3726 42 30Z" fill="white"/>
<path fill-rule="evenodd" clip-rule="evenodd" d="M30 0C31.6569 0 33 1.34315 33 3V9C33 10.6569 31.6569 12 30 12C28.3431 12 27 10.6569 27 9V3C27 1.34315 28.3431 0 30 0Z" fill="white"/>
<path fill-rule="evenodd" clip-rule="evenodd" d="M30 48C31.6569 48 33 49.3431 33 51V57C33 58.6569 31.6569 60 30 60C28.3431 60 27 58.6569 27 57V51C27 49.3431 28.3431 48 30 48Z" fill="white"/>
<path fill-rule="evenodd" clip-rule="evenodd" d="M51.2134 8.78591C52.3849 9.95748 52.3849 11.857 51.2134 13.0285L46.9707 17.2712C45.7991 18.4428 43.8997 18.4428 42.7281 17.2712C41.5565 16.0996 41.5565 14.2001 42.7281 13.0285L46.9707 8.78591C48.1423 7.61433 50.0418 7.61433 51.2134 8.78591Z" fill="white"/>
<path fill-rule="evenodd" clip-rule="evenodd" d="M17.2722 42.7293C18.4438 43.9008 18.4438 45.8003 17.2722 46.9719L13.0296 51.2145C11.858 52.3861 9.95849 52.3861 8.78692 51.2145C7.61535 50.043 7.61535 48.1435 8.78692 46.9719L13.0296 42.7293C14.2011 41.5577 16.1006 41.5577 17.2722 42.7293Z" fill="white"/>
<path fill-rule="evenodd" clip-rule="evenodd" d="M60 30C60 31.6569 58.6569 33 57 33H51C49.3431 33 48 31.6569 48 30C48 28.3431 49.3431 27 51 27H57C58.6569 27 60 28.3431 60 30Z" fill="white"/>
<path fill-rule="evenodd" clip-rule="evenodd" d="M12 30C12 31.6569 10.6569 33 9 33H3C1.34314 33 -7.24234e-08 31.6569 0 30C7.24234e-08 28.3431 1.34315 27 3 27H9C10.6569 27 12 28.3431 12 30Z" fill="white"/>
<path fill-rule="evenodd" clip-rule="evenodd" d="M51.2134 51.2141C50.0418 52.3857 48.1423 52.3857 46.9707 51.2141L42.7281 46.9715C41.5565 45.7999 41.5565 43.9004 42.7281 42.7288C43.8997 41.5572 45.7991 41.5572 46.9707 42.7288L51.2134 46.9715C52.3849 48.143 52.3849 50.0425 51.2134 51.2141Z" fill="white"/>
<path fill-rule="evenodd" clip-rule="evenodd" d="M17.2722 17.2707C16.1006 18.4423 14.2011 18.4423 13.0296 17.2707L8.78692 13.0281C7.61534 11.8565 7.61534 9.95702 8.78692 8.78545C9.95849 7.61388 11.858 7.61388 13.0296 8.78545L17.2722 13.0281C18.4438 14.1997 18.4438 16.0992 17.2722 17.2707Z" fill="white"/>
</svg>
