<svg width="99" height="92" viewBox="0 0 99 92" fill="none" xmlns="http://www.w3.org/2000/svg">
<path d="M92.9059 15.9046H45.2568C43.8612 15.9046 42.665 16.5011 41.6681 17.2963L33.8928 25.0498L26.3167 17.4951C24.5224 15.7058 21.7313 15.507 19.7376 16.8987C18.5414 17.6939 17.7439 19.0856 17.7439 20.4772C17.5445 21.8689 18.1426 23.4594 19.1395 24.4534L30.5035 35.7855C32.2978 37.5748 35.6871 37.5748 37.4814 35.7855L44.2599 29.026V43.7379H29.3073C26.5161 43.7379 24.323 45.9248 24.323 48.7081V66.7997L26.3167 66.0045V48.9069C26.3167 47.3164 27.7123 45.9248 29.3073 45.9248H52.2347V51.889H33.2946C32.6965 51.889 32.2978 52.2866 32.2978 52.8831V63.6187L34.2915 62.8235V53.6783H52.2347V55.2688L54.2284 54.4735V40.7557C54.2284 39.1653 55.624 37.7736 57.2189 37.7736C58.8139 37.7736 60.2094 39.1653 60.2094 40.7557V51.889L61.2063 51.4914H61.4056L62.2031 51.0938V25.8451H93.1053C94.5009 25.8451 95.8965 25.2486 96.8933 24.0558C97.8901 22.8629 98.2889 21.4713 98.0895 20.0796C97.6908 17.6939 95.4977 15.9046 92.9059 15.9046ZM95.4977 22.8629C94.8996 23.4594 94.1021 23.857 93.3047 23.857H61.4056C60.8075 23.857 60.4088 24.2546 60.4088 24.851V36.7796C59.6113 36.1831 58.6145 35.7855 57.4183 35.7855C54.6271 35.7855 52.434 37.9724 52.434 40.7557V43.7379H46.453V26.4415C46.453 26.0439 46.2536 25.6463 45.8549 25.4475C45.4561 25.2486 45.0574 25.4475 44.858 25.6463L36.4845 33.9962C35.2883 35.1891 33.2946 35.1891 32.2978 33.9962L20.9338 22.6641C20.3357 22.0677 19.9369 21.2725 20.1363 20.2784C20.1363 19.4832 20.7344 18.688 21.3325 18.0915C22.5287 17.2963 24.1237 17.4951 25.3199 18.4891L33.6934 26.8391C34.0921 27.2367 34.6902 27.2367 35.089 26.8391L43.4625 18.4891C44.0606 17.8927 44.858 17.6939 45.6555 17.6939H93.3047C94.8996 17.6939 96.2952 18.688 96.4946 20.0796C96.2952 21.2725 96.0958 22.2665 95.4977 22.8629Z" fill="white"/>
<path d="M53.2315 13.9166C57.0195 13.9166 60.2094 10.7357 60.2094 6.95831C60.2094 3.18094 57.2189 0 53.2315 0C49.2441 0 46.2536 3.18094 46.2536 6.95831C46.2536 10.7357 49.4435 13.9166 53.2315 13.9166ZM53.2315 1.98809C56.0227 1.98809 58.2157 4.17499 58.2157 6.95831C58.2157 9.74163 56.0227 11.9285 53.2315 11.9285C50.4403 11.9285 48.2473 9.74163 48.2473 6.95831C48.2473 4.17499 50.4403 1.98809 53.2315 1.98809Z" fill="white"/>
<path d="M63.7482 51.0348L62.7513 51.4324L58.5646 53.2217L56.9696 54.0169L54.9759 54.8122L37.0328 62.1681L27.0643 66.1443L5.53248 75.0907C3.33943 76.0847 1.54511 77.6752 0.747633 79.8621C-0.249211 82.049 -0.249211 84.4347 0.747633 86.6216C1.74448 88.8085 3.33943 90.5978 5.53248 91.393C6.7287 91.7906 7.72554 91.9894 8.92175 91.9894C10.118 91.9894 11.3142 91.7906 12.311 91.393L86.0775 60.9753C90.663 59.186 92.856 53.8181 90.8623 49.2455C89.068 44.6729 83.6851 42.486 79.0996 44.4741L64.5457 50.4384L63.7482 51.0348ZM82.6882 46.0646C85.4794 46.0646 88.0712 47.6551 89.068 50.4384C89.8655 52.2277 89.8655 54.0169 89.068 55.8062C88.2705 57.5955 87.0743 58.7884 85.28 59.5836L11.5135 90.0013C9.71923 90.7966 7.92491 90.7966 6.13059 90.0013C4.33627 89.2061 3.14006 88.0132 2.34258 86.224C1.54511 84.4347 1.54511 82.6454 2.34258 80.8561C3.33943 79.0669 4.53564 77.6752 6.32996 77.0788L26.8649 68.53L36.8334 64.5538L54.7766 57.1979L64.745 53.2217L79.8971 46.8598C80.8939 46.2634 81.6914 46.0646 82.6882 46.0646Z" fill="white"/>
</svg>
