<svg width="48" height="42" viewBox="0 0 48 42" fill="none" xmlns="http://www.w3.org/2000/svg">
<path d="M25.8743 0.0296467C26.247 0.00996512 26.6222 0 26.9998 0C38.5978 0 47.9998 9.40202 47.9998 21C47.9998 32.598 38.5978 42 26.9998 42C23.0192 42 19.2973 40.8925 16.1254 38.9687C27.2 38.3839 35.9998 29.2188 35.9998 17.9984C35.9998 10.381 31.9441 3.71092 25.8743 0.0296467Z" fill="white"/>
<path d="M7.19999 15.6C7.50411 16.5124 7.65617 16.9685 7.80826 17.1675C8.40863 17.9529 9.59136 17.9529 10.1917 17.1675C10.3438 16.9685 10.4959 16.5124 10.8 15.6C11.0453 14.864 11.168 14.496 11.3267 14.163C11.9187 12.9201 12.9201 11.9187 14.163 11.3267C14.496 11.168 14.864 11.0453 15.6 10.8C16.5123 10.4959 16.9685 10.3438 17.1675 10.1917C17.9529 9.59136 17.9529 8.40864 17.1675 7.80827C16.9685 7.65618 16.5123 7.50412 15.6 7.2C14.864 6.95468 14.496 6.83201 14.163 6.67334C12.9201 6.08128 11.9187 5.07986 11.3267 3.83703C11.168 3.50396 11.0453 3.13597 10.8 2.4C10.4959 1.48765 10.3438 1.03147 10.1917 0.832492C9.59136 0.0470581 8.40863 0.0470581 7.80826 0.832492C7.65617 1.03147 7.50411 1.48765 7.19999 2.4C6.95467 3.13597 6.83201 3.50396 6.67333 3.83703C6.08128 5.07986 5.07985 6.08128 3.83703 6.67334C3.50395 6.83201 3.13596 6.95468 2.39999 7.2C1.48764 7.50412 1.03147 7.65618 0.832484 7.80827C0.0470497 8.40864 0.0470497 9.59136 0.832484 10.1917C1.03147 10.3438 1.48764 10.4959 2.39999 10.8C3.13596 11.0453 3.50395 11.168 3.83703 11.3267C5.07985 11.9187 6.08128 12.9201 6.67333 14.163C6.83201 14.496 6.95467 14.864 7.19999 15.6Z" fill="white"/>
</svg>
