<svg width="54" height="58" viewBox="0 0 54 58" fill="none" xmlns="http://www.w3.org/2000/svg">
<path d="M9 30H45C49.9706 30 54 25.9706 54 21C54 16.0294 49.9706 12 45 12C43.0799 12 41.478 10.6162 40.6918 8.86442C38.3467 3.63922 33.0984 0 27 0C20.9017 0 15.6533 3.63922 13.3082 8.86442C12.522 10.6162 10.9201 12 9 12C4.02944 12 0 16.0294 0 21C0 25.9706 4.02944 30 9 30Z" fill="white"/>
<path d="M21.7057 36L20.3188 38.3579C17.9576 42.3719 16.777 44.3789 17.641 45.8894C18.5049 47.4 20.8362 47.4 25.4987 47.4C26.2066 47.4 26.5605 47.4 26.7802 47.6197C26.9999 47.8393 26.9999 48.1929 26.9999 48.9V54.4915C26.9999 56.7097 26.9999 57.8188 27.5528 57.9694C28.1057 58.12 28.6681 57.164 29.7928 55.2521L33.681 48.6421C36.0421 44.6281 37.2227 42.6211 36.3588 41.1106C35.4948 39.6 33.1635 39.6 28.501 39.6C27.7931 39.6 27.4392 39.6 27.2195 39.3803C26.9999 39.1607 26.9999 38.8071 26.9999 38.1V36H21.7057Z" fill="white"/>
</svg>
