<svg width="54" height="54" viewBox="0 0 54 54" fill="none" xmlns="http://www.w3.org/2000/svg">
<path d="M9 30H45C49.9706 30 54 25.9706 54 21C54 16.0294 49.9706 12 45 12C43.0799 12 41.478 10.6162 40.6918 8.86442C38.3467 3.63922 33.0984 0 27 0C20.9017 0 15.6533 3.63922 13.3082 8.86442C12.522 10.6162 10.9201 12 9 12C4.02944 12 0 16.0294 0 21C0 25.9706 4.02944 30 9 30Z" fill="white"/>
<path fill-rule="evenodd" clip-rule="evenodd" d="M27 36C28.6569 36 30 37.3431 30 39V45C30 46.6569 28.6569 48 27 48C25.3431 48 24 46.6569 24 45V39C24 37.3431 25.3431 36 27 36Z" fill="white"/>
<path fill-rule="evenodd" clip-rule="evenodd" d="M42 36C43.6569 36 45 37.3431 45 39V48C45 49.6569 43.6569 51 42 51C40.3431 51 39 49.6569 39 48V39C39 37.3431 40.3431 36 42 36Z" fill="white"/>
<path fill-rule="evenodd" clip-rule="evenodd" d="M12 36C13.6569 36 15 37.3431 15 39V51C15 52.6569 13.6569 54 12 54C10.3431 54 9 52.6569 9 51V39C9 37.3431 10.3431 36 12 36Z" fill="white"/>
</svg>
